# xmcd
#
# Track frame offsets: 
#        150
#        21937
#        38775
#        51300
#        72750
#        91875
#        108675
#        124237
#        140625
#        158362
#        181875
#        199950
#
# Disc length: 2784 seconds
#
# Revision: 0
# Processed by: cddbd v1.5.2PL0 Copyright (c) Steve Scherf et al.
# Submitted via: ExactAudioCopyFreeDBPlugin 1.0
#
DISCID=a70ade0c
DTITLE=Caroline Rose - America Religious
DYEAR=2013
DGENRE=Country
TTITLE0=America Religious
TTITLE1=This is What Livin' Feels Like
TTITLE2=Roll On
TTITLE3=Here Come the Rain
TTITLE4=Notes Walking Home From Work
TTITLE5=Thomas Flyer, 1907
TTITLE6=Six Foot Woman
TTITLE7=Honey, I'll Be Fine
TTITLE8=Notes From a Bedroom Upstairs
TTITLE9=Petrified Elizabeth
TTITLE10=Mister Blue Jean Man
TTITLE11=I will Not Be Afraid
EXTD=
EXTT0=
EXTT1=
EXTT2=
EXTT3=
EXTT4=
EXTT5=
EXTT6=
EXTT7=
EXTT8=
EXTT9=
EXTT10=
EXTT11=
PLAYORDER=
